<svg width="401" height="363" viewBox="0 0 401 363" fill="none" xmlns="http://www.w3.org/2000/svg">
<path fill-rule="evenodd" clip-rule="evenodd" d="M198.72 19.3399L184.576 14.0321C134.839 -4.6326 79.3971 -4.6326 29.66 14.0321C12.2665 20.5593 0.141235 36.7232 0.141235 55.4582V313.145C0.141235 341.329 29.5798 358.046 54.4362 348.719C88.2412 336.033 125.995 336.033 159.8 348.719L194.984 361.922C196.176 362.369 197.437 362.638 198.72 362.733V19.3399ZM201.561 362.733C202.845 362.638 204.106 362.369 205.299 361.922L240.483 348.719C274.288 336.033 312.041 336.033 345.846 348.719C370.703 358.046 400.141 341.329 400.141 313.145V55.4582C400.141 36.7232 388.016 20.5593 370.622 14.0321C320.885 -4.6326 265.444 -4.6326 215.706 14.0321L201.561 19.3402V362.733Z" fill="#DDB762"/>
</svg>
