<svg width="401" height="492" viewBox="0 0 401 492" fill="none" xmlns="http://www.w3.org/2000/svg">
<path fill-rule="evenodd" clip-rule="evenodd" d="M0.989502 108.885C0.989502 48.9226 49.5986 0.313477 109.561 0.313477H292.418C352.38 0.313477 400.99 48.9226 400.99 108.885V383.171C400.99 443.133 352.38 491.742 292.418 491.742H109.561C49.5986 491.742 0.989502 443.133 0.989502 383.171V108.885ZM109.561 114.599C100.093 114.599 92.4181 122.274 92.4181 131.742C92.4181 141.21 100.093 148.885 109.561 148.885H292.418C301.886 148.885 309.561 141.21 309.561 131.742C309.561 122.274 301.886 114.599 292.418 114.599H109.561ZM92.4181 246.028C92.4181 236.56 100.093 228.885 109.561 228.885H292.418C301.886 228.885 309.561 236.56 309.561 246.028C309.561 255.496 301.886 263.171 292.418 263.171H109.561C100.093 263.171 92.4181 255.496 92.4181 246.028ZM109.561 343.171C100.093 343.171 92.4181 350.846 92.4181 360.313C92.4181 369.781 100.093 377.456 109.561 377.456H200.99C210.457 377.456 218.132 369.781 218.132 360.313C218.132 350.846 210.457 343.171 200.99 343.171H109.561Z" fill="#DDB762"/>
</svg>
