<svg width="200" height="200" viewBox="0 0 200 200" fill="none" xmlns="http://www.w3.org/2000/svg">
<path fill-rule="evenodd" clip-rule="evenodd" d="M136.488 0.98815C137.765 -0.29064 139.836 -0.291414 141.114 0.986409L198.802 58.6745C200.069 59.9414 200.082 61.9924 198.831 63.2755L160.088 103.027L97.2982 40.2374L136.488 0.98815ZM95.5643 41.974L158.375 104.784L67.5217 198C66.5983 198.948 65.3318 199.482 64.0093 199.482L3.09674 199.479C1.70147 199.479 0.5872 198.316 0.645885 196.921L3.19516 136.314C3.24685 135.085 3.75767 133.92 4.62651 133.05L95.5643 41.974ZM198.183 199.856C198.861 199.856 199.41 199.306 199.41 198.628C199.41 197.951 198.861 197.401 198.183 197.401H126.283C125.606 197.401 125.057 197.951 125.057 198.628C125.057 199.306 125.606 199.856 126.283 199.856H198.183Z" fill="white"/>
</svg>
