<svg width="401" height="384" viewBox="0 0 401 384" fill="none" xmlns="http://www.w3.org/2000/svg">
<path fill-rule="evenodd" clip-rule="evenodd" d="M15.6432 0.397377C7.14647 0.397377 0.258545 7.2853 0.258545 15.782C0.258545 24.2787 7.14647 31.1666 15.6432 31.1666H41.2842V343.281C41.2842 373.087 75.508 389.91 99.1079 371.704L126.407 350.645C128.124 349.321 130.488 349.219 132.312 350.392L169.754 374.461C188.336 386.407 212.181 386.407 230.763 374.461L268.205 350.392C270.029 349.219 272.393 349.321 274.11 350.645L301.409 371.704C325.009 389.91 359.233 373.087 359.233 343.281V31.1666H384.874C393.371 31.1666 400.259 24.2787 400.259 15.782C400.259 7.2853 393.371 0.397377 384.874 0.397377H15.6432ZM123.335 138.859C123.335 130.362 130.223 123.474 138.72 123.474H200.259C208.755 123.474 215.643 130.362 215.643 138.859C215.643 147.356 208.755 154.244 200.259 154.244H138.72C130.223 154.244 123.335 147.356 123.335 138.859ZM138.72 205.526C130.223 205.526 123.335 212.414 123.335 220.91C123.335 229.407 130.223 236.295 138.72 236.295H200.259C208.755 236.295 215.643 229.407 215.643 220.91C215.643 212.414 208.755 205.526 200.259 205.526H138.72ZM246.412 138.859C246.412 130.362 253.3 123.474 261.797 123.474H272.053C280.55 123.474 287.438 130.362 287.438 138.859C287.438 147.356 280.55 154.244 272.053 154.244H261.797C253.3 154.244 246.412 147.356 246.412 138.859ZM261.797 205.526C253.3 205.526 246.412 212.414 246.412 220.91C246.412 229.407 253.3 236.295 261.797 236.295H272.053C280.55 236.295 287.438 229.407 287.438 220.91C287.438 212.414 280.55 205.526 272.053 205.526H261.797Z" fill="#DDB762"/>
</svg>
