<svg width="404" height="503" viewBox="0 0 404 503" fill="none" xmlns="http://www.w3.org/2000/svg">
<ellipse cx="114.286" cy="114.286" rx="114.286" ry="114.286" transform="matrix(-1 0 0 1 316.153 1.7775)" fill="#DDB762" stroke="#DDB762" stroke-width="3.34487"/>
<path d="M1.89453 365.204C1.89453 361.434 4.26422 358.071 7.81417 356.804L177.145 296.328C193.149 290.612 210.64 290.612 226.645 296.328L395.975 356.804C399.525 358.071 401.895 361.434 401.895 365.204V496.633C401.895 499.347 399.491 501.431 396.804 501.048L210.409 474.42C204.761 473.613 199.028 473.613 193.38 474.42L6.98507 501.048C4.29832 501.431 1.89453 499.347 1.89453 496.633V365.204Z" fill="#DDB762" stroke="#DDB762" stroke-width="3.34487"/>
</svg>
