<svg width="441" height="525" viewBox="0 0 441 525" fill="none" xmlns="http://www.w3.org/2000/svg">
<path d="M220.5 359.211C98.6737 359.211 0 408.671 0 469.737V525H441V469.737C441 408.671 342.326 359.211 220.5 359.211ZM110.25 193.421C110.25 222.734 121.866 250.847 142.541 271.575C163.217 292.303 191.26 303.947 220.5 303.947C249.74 303.947 277.783 292.303 298.459 271.575C319.134 250.847 330.75 222.734 330.75 193.421M206.719 0C198.45 0 192.938 5.80263 192.938 13.8158V96.7105H165.375V27.6316C165.375 27.6316 103.359 51.3947 103.359 131.25C103.359 131.25 82.6875 135.118 82.6875 165.789H358.312C356.934 135.118 337.641 131.25 337.641 131.25C337.641 51.3947 275.625 27.6316 275.625 27.6316V96.7105H248.062V13.8158C248.062 5.80263 242.826 0 234.281 0H206.719Z" fill="#DDB762"/>
</svg>
